<svg xmlns="http://www.w3.org/2000/svg" width="136" height="59" fill="none"><path fill="url(#a)" d="M131.623 45.095c-.439 1.251-.844 4.124-2.341 4.458-2.022.45-1.978-1.77-1.961-3.194.035-2.8 1.892-6.839 1.071-9.418-16.284 14.134-36.387 21.926-57.978 21.987-21.474.06-45.336-6.842-59.526-23.981C3.943 26.557-.677 16.323.137 5.18c.07-.956.196-5.7 1.97-4.881.924.426.703 6.514.832 7.607.674 5.68 2.296 10.921 5.035 15.928 9.331 17.057 28.717 26.64 47.208 29.479 12.25 1.88 25.191 1.05 37.205-2.206 6.2-1.68 12.372-3.99 17.995-7.142 4.743-2.657 12.646-6.845 15.502-11.685-4.799-.913-10.659 2.84-15.584 2.64-2.61-.107-4.903-2.21-2.327-4.312 2.089-1.703 6.852-1.572 9.431-1.975 2.876-.449 5.751-.802 8.657-.98 2.131-.13 6.649-1.298 8.346.19 3 2.632-1.762 14.007-2.784 17.252.426-1.354-.459 1.308 0 0z"/><defs><linearGradient id="a" x1="137.209" x2="6.072" y1="28.722" y2="18.586" gradientUnits="userSpaceOnUse"><stop stop-color="#1B2A4B"/><stop offset="1" stop-color="#1B2A4B" stop-opacity="0"/></linearGradient></defs></svg>