<svg xmlns="http://www.w3.org/2000/svg" width="23" height="22" fill="none"><path fill="#fff" fill-rule="evenodd" d="M17.177 16.233c.002.188-.058.241-.24.237a26.41 26.41 0 0 0-1.555.003c-.26.01-.338-.057-.335-.327.016-1.166.006-2.332.008-3.497 0-.32-.021-.637-.139-.938-.198-.508-.541-.853-1.11-.902-.605-.053-1.044.222-1.341.733-.195.334-.24.707-.239 1.09.003 1.178-.006 2.355.007 3.532.004.254-.074.317-.317.308a27.028 27.028 0 0 0-1.554-.001c-.199.005-.26-.055-.26-.256a1471 1471 0 0 0 .002-7.277c0-.174.036-.252.232-.248.553.012 1.107.012 1.66 0 .192-.004.242.066.234.245-.012.29-.003.581-.003.948.82-1.014 1.808-1.347 2.982-1.11 1.136.229 1.917 1.251 1.95 2.62.038 1.613.01 3.227.018 4.84zM7.63 7.787a1.22 1.22 0 0 1-1.224-1.24 1.24 1.24 0 0 1 1.232-1.24 1.238 1.238 0 0 1 1.224 1.247A1.218 1.218 0 0 1 7.63 7.787zm.762 8.686a26.385 26.385 0 0 0-1.554-.003c-.185.004-.27-.03-.268-.246.007-2.424.006-4.848 0-7.272 0-.195.046-.268.254-.262.529.013 1.06.017 1.588-.002.243-.008.288.082.286.302-.009 1.2-.004 2.4-.004 3.601 0 1.188-.007 2.377.005 3.565.003.242-.052.327-.307.317zM19.965 5.876c-.049-.386-.055-.783-.268-1.128-.69-1.118-1.641-1.755-3.005-1.748-3.451.018-6.902 0-10.353.012-.519.001-1.052.019-1.523.297-1.149.68-1.823 1.63-1.816 3.025.016 3.462 0 6.925.011 10.388.002.487.01.998.265 1.438.604 1.04 1.4 1.811 2.706 1.806.037 0 .066.018.098.034h10.882c.06-.054.134-.027.202-.035.391-.05.795-.052 1.142-.276.971-.628 1.685-1.418 1.663-2.667 0-.022.015-.042.032-.06V6.08c-.049-.062-.028-.135-.037-.204z" clip-rule="evenodd"/></svg>